<?xml version="1.0" standalone="no"?><!DOCTYPE svg PUBLIC "-//W3C//DTD SVG 1.1//EN" "http://www.w3.org/Graphics/SVG/1.1/DTD/svg11.dtd"><svg t="1495444404739" class="icon" style="" viewBox="0 0 1113 1024" version="1.1" xmlns="http://www.w3.org/2000/svg" p-id="6322" xmlns:xlink="http://www.w3.org/1999/xlink" width="326.07421875" height="300"><defs><style type="text/css"></style></defs><path d="M1020.223911 420.084895 92.460644 420.084895C41.474902 420.084895 0 460.577361 0 510.43633l0 30.216475c0 39.776981 26.002713 73.296176 63.280925 85.100917l92.504101 316.066283c0.546315 1.75845 1.218344 3.473443 2.085929 5.104627 36.326818 71.169894 77.53477 77.073817 120.075916 77.073817L834.63525 1023.998448c42.553562 0 83.74289-5.903923 120.136445-77.055193 0.867585-1.649808 1.539614-3.338417 2.061096-5.104627l92.546005-316.084907c37.279764-11.800085 63.263853-45.317728 63.263853-85.094709l0-30.222683C1112.64265 460.577361 1071.192581 420.084895 1020.223911 420.084895L1020.223911 420.084895zM1051.464725 540.654357c0 15.66464-12.343296 28.437848-28.766879 29.699649-12.773208 0.976227-23.505497 9.57913-27.020845 21.570115l-96.849785 330.709687c-21.788951 41.558711-36.99419 41.558711-64.196623 41.558711L277.940662 964.192518c-27.154319 0-42.359559 0-64.14851-41.558711L117.009105 591.942745c-3.498276-12.011161-14.253845-20.614064-27.027053-21.590291-16.423583-1.261801-28.85224-14.035009-28.85224-29.699649l0-30.216475c0-17.139069 13.774268-30.585858 31.324624-30.585858l927.769475 0c17.224431 0 31.234607 13.70753 31.234607 30.585858l0 30.216475L1051.464725 540.652804zM307.205743 351.061458 534.941334 122.871122c6.735811 2.321837 13.864285 3.844379 21.400944 3.844379 8.033308 0 15.64136-1.631184 22.740346-4.213762l226.24409 228.451077c6.426957 6.499902 15.005027 9.760718 23.589306 9.760718 8.23352 0 16.49032-3.018699 22.87382-9.020399 13.052574-12.337088 13.380052-32.696619 0.763599-45.421714L620.236254 71.691376c0.41284-2.75951 0.867585-5.498843 0.867585-8.32509C621.103839 28.372663 592.124332 0 556.342277 0c-35.799127 0-64.845371 28.372663-64.845371 63.366287 0 3.389634 0.521482 6.693906 1.042964 9.948513L260.171469 306.162778c-12.664566 12.706471-12.428657 33.04117 0.563387 45.42637C273.751733 364.011598 294.539625 363.750857 307.205743 351.061458L307.205743 351.061458zM923.069928 580.277686 199.605045 580.277686c-9.214403 0-16.684324 7.305406-16.684324 16.322701 0 8.990911 7.469921 16.313389 16.684324 16.313389L923.069928 612.913776c9.215955 0 16.684324-7.322478 16.684324-16.313389C939.754252 587.583092 932.285883 580.277686 923.069928 580.277686L923.069928 580.277686zM893.374935 688.986533l-671.501362 0c-9.214403 0-16.6657 7.299198-16.6657 16.296317 0 8.990911 7.451297 16.316493 16.6657 16.316493l671.501362 0c9.209747 0 16.684324-7.325582 16.684324-16.316493C910.059259 696.285731 902.584682 688.986533 893.374935 688.986533L893.374935 688.986533zM853.247196 797.703141 250.828248 797.703141c-9.208195 0-16.684324 7.297646-16.684324 16.314941 0 8.990911 7.476129 16.269932 16.684324 16.269932l602.418948 0c9.215955 0 16.684324-7.279021 16.684324-16.269932C869.93152 805.000787 862.461599 797.703141 853.247196 797.703141L853.247196 797.703141zM853.247196 797.703141" p-id="6323" fill="#dbdbdb"></path></svg>